<?xml version="1.0"?>
<svg width="193.4999942779541" height="186.7188415527344" xmlns="http://www.w3.org/2000/svg" xmlns:svg="http://www.w3.org/2000/svg">
 <!--Unicode Character 'SNOWMAN' (U+2603)-->

 <g>
  <title>Layer 1</title>
  <g stroke="null" id="svg_1">
   <g stroke="null" id="svg_2">
    <path id="svg_3" d="m165.5,83.355453l-1.173645,4.955986l-7.981186,-1.613617l-6.807373,7.491653q-1.760574,1.959305 -4.577423,3.457596l-6.807358,3.918724q4.812103,9.105072 4.812103,21.206924q0,20.284882 -14.142975,34.115494q-14.142975,13.830597 -35.621559,13.830597q-20.656975,0 -34.271801,-12.850967q-13.614826,-12.850922 -13.614826,-34.057854q0,-13.023796 5.985851,-23.396797l-6.572674,-5.532242q-0.821606,-0.576248 -2.699512,-5.07122l-3.168995,-7.837341l-9.624228,-2.305099l1.173651,-4.725433l6.337978,1.613525l-1.760559,-4.725433l4.812115,-2.074638l2.230038,6.33905l5.28159,-4.955894l2.81686,3.803391l-6.924717,6.108498l4.694763,9.91188q0.352047,0.691582 5.86842,5.417007q7.042152,-10.488129 19.013767,-16.711952q-11.384789,-7.952568 -11.384789,-22.474754q0,-16.596722 13.966957,-27.084942l-12.675877,0.461094l0.70417,-6.223808l9.624317,-0.691568l8.920059,-16.481405q7.394279,2.535561 11.267441,2.535561q3.755814,0 11.502136,-2.535561l7.981186,14.17638l11.502144,0.230473l3.873154,5.186451q-11.032654,0.69158 -16.666374,1.152601q15.140602,8.874613 15.140602,25.701883q0,13.369495 -11.971619,24.318745q14.319,6.569511 21.595932,20.054428l7.042084,-4.149185q1.643204,-1.037369 3.521103,-3.227135l5.633728,-6.454285l-1.760574,-9.450966l4.812134,-1.26783l0.704254,6.223824l4.107941,-4.725433l3.873154,2.766121l-4.107941,4.725433l5.516373,0.922043zm-71.360466,-1.383064q9.389542,0 17.781448,-8.586525q8.391907,-8.586449 8.391907,-19.766171q0,-11.295033 -7.394279,-18.037476q-7.394279,-6.742369 -18.779076,-6.742369q-11.384789,0 -18.896416,8.413591q-7.511627,8.413593 -7.511627,19.939095q0,11.410271 7.394279,18.095016q7.394203,6.684837 19.013763,6.684837zm7.394279,-39.417179q1.291,0 2.464737,1.037285q1.173737,1.03727 1.173737,2.305099q0,3.227139 -3.638474,3.227139q-3.521111,0 -3.521111,-3.457699q0,-3.111824 3.521111,-3.111824zm-15.610161,0.230473q3.638466,0 3.638466,3.111912q0,3.227139 -4.577423,3.227139q-3.638374,0 -3.638374,-2.766121q0,-3.572929 4.577332,-3.572929zm8.215881,9.681423q3.638466,0 3.638466,3.342369q0,2.766121 -2.230034,2.766121q-1.64312,0 -3.227661,-0.86441q-1.584457,-0.864426 -1.584457,-2.132168q0,-2.074642 0.762848,-2.593277q0.762932,-0.518635 2.640839,-0.518635zm11.736923,10.37299q1.877907,0 2.406052,0.288086q0.52816,0.288177 0.52816,1.671234q0,2.535561 -3.168999,2.535561q-2.34729,0 -2.34729,-2.305099q0,-2.189781 2.582077,-2.189781zm-21.830711,0.92205q2.699516,0 2.699516,2.420334q0,2.766121 -2.934212,2.766121q-2.934212,0 -2.934212,-2.53566q0,-2.650795 3.168907,-2.650795zm17.135941,2.305q0.938957,0 0.938957,1.959412q0,3.111908 -2.699509,3.111908q-2.347389,0 -2.347389,-2.881447q0,-1.728752 0.704254,-1.959312q0.704178,-0.23056 3.403687,-0.23056zm-9.154747,0.115334q2.582077,0 2.582077,2.074539q0,2.420326 -3.638466,2.420326q-1.291084,0 -1.701805,-0.288086q-0.410805,-0.288162 -0.410805,-1.671219q0,-1.728851 0.52816,-2.132172q0.528145,-0.403389 2.640839,-0.403389zm-36.384495,37.80365q-3.990513,9.450859 -3.990513,19.82386q0,18.556038 11.854267,30.023903q11.854275,11.467911 29.694386,11.467911q18.661728,0 31.044136,-12.332321q12.382416,-12.332306 12.382416,-30.196762q0,-10.257774 -3.521027,-18.325577l-12.323746,6.799973l-2.816856,-3.803391l13.380028,-7.261093q-7.628967,-12.678001 -21.126442,-18.210243q-8.920052,5.186455 -16.079559,5.186455q-8.920052,0 -16.079559,-3.803391q-12.675865,4.610199 -20.187496,16.366264l10.093716,7.952568l-2.934219,3.803391l-9.38953,-7.491547z"/>
   </g>
  </g>
 </g>
</svg>